<?xml version="1.0" encoding="UTF-8" standalone="no"?>
<!DOCTYPE svg PUBLIC "-//W3C//DTD SVG 1.1//EN"
 "http://www.w3.org/Graphics/SVG/1.1/DTD/svg11.dtd">
<!-- Generated by graphviz version 14.1.5 (0)
 -->
<!-- Title: CharVector Pages: 1 -->
<svg width="560pt" height="567pt"
 viewBox="0.00 0.00 560.00 567.00" xmlns="http://www.w3.org/2000/svg" xmlns:xlink="http://www.w3.org/1999/xlink">
<g id="graph0" class="graph" transform="scale(1 1) rotate(0) translate(4 562.7)">
<title>CharVector</title>
<polygon fill="#ffffff" stroke="none" points="-4,4 -4,-562.7 556.25,-562.7 556.25,4 -4,4"/>
<text xml:space="preserve" text-anchor="middle" x="276.12" y="-541.4" font-family="DejaVu Sans" font-size="14.00">D6 · Relevant subword s_n(w,i) and characteristic vector χ(c, ·)</text>
<text xml:space="preserve" text-anchor="middle" x="276.12" y="-524.15" font-family="DejaVu Sans" font-size="14.00">w = &quot;hello&quot;, &#160;n = 1, &#160;i = 2, &#160;c = &#39;l&#39; &#160;&#160;⇒ &#160;&#160;window = &quot;ell&quot;, &#160;&#160;χ(&#39;l&#39;, &quot;ell&quot;) = [0, 1, 1]</text>
<g id="clust1" class="cluster">
<title>cluster_term</title>
<path fill="#ffffff" stroke="#aab7b8" d="M162.12,-8C162.12,-8 274.12,-8 274.12,-8 280.12,-8 286.12,-14 286.12,-20 286.12,-20 286.12,-432 286.12,-432 286.12,-438 280.12,-444 274.12,-444 274.12,-444 162.12,-444 162.12,-444 156.12,-444 150.12,-438 150.12,-432 150.12,-432 150.12,-20 150.12,-20 150.12,-14 156.12,-8 162.12,-8"/>
<text xml:space="preserve" text-anchor="middle" x="218.12" y="-15.95" font-family="DejaVu Sans" font-size="14.00">term &#160;w = &quot;hello&quot;</text>
</g>
<g id="clust2" class="cluster">
<title>cluster_chi</title>
<path fill="#ffffff" stroke="#aab7b8" d="M306.12,-8C306.12,-8 390.12,-8 390.12,-8 396.12,-8 402.12,-14 402.12,-20 402.12,-20 402.12,-261.35 402.12,-261.35 402.12,-267.35 396.12,-273.35 390.12,-273.35 390.12,-273.35 306.12,-273.35 306.12,-273.35 300.12,-273.35 294.12,-267.35 294.12,-261.35 294.12,-261.35 294.12,-20 294.12,-20 294.12,-14 300.12,-8 306.12,-8"/>
<text xml:space="preserve" text-anchor="middle" x="348.12" y="-15.95" font-family="DejaVu Sans" font-size="14.00">χ(&#39;l&#39;, window)</text>
</g>
<!-- w0 -->
<g id="node1" class="node">
<title>w0</title>
<polygon fill="#ffffff" stroke="black" points="277.73,-436 234.53,-436 234.53,-392.8 277.73,-392.8 277.73,-436"/>
<text xml:space="preserve" text-anchor="middle" x="256.12" y="-410.12" font-family="DejaVu Sans" font-size="12.00">h</text>
</g>
<!-- w1 -->
<g id="node2" class="node">
<title>w1</title>
<polygon fill="#d1f2eb" stroke="black" points="277.73,-355.8 234.53,-355.8 234.53,-312.6 277.73,-312.6 277.73,-355.8"/>
<text xml:space="preserve" text-anchor="middle" x="256.12" y="-329.92" font-family="DejaVu Sans" font-size="12.00">e</text>
</g>
<!-- w0&#45;&gt;w1 -->
<!-- w2 -->
<g id="node3" class="node">
<title>w2</title>
<polygon fill="#d1f2eb" stroke="black" points="277.73,-265.35 234.53,-265.35 234.53,-222.15 277.73,-222.15 277.73,-265.35"/>
<text xml:space="preserve" text-anchor="middle" x="256.12" y="-239.47" font-family="DejaVu Sans" font-size="12.00">l</text>
</g>
<!-- w1&#45;&gt;w2 -->
<!-- c1 -->
<g id="node6" class="node">
<title>c1</title>
<polygon fill="#eaecee" stroke="black" points="345.73,-265.35 302.52,-265.35 302.52,-222.15 345.73,-222.15 345.73,-265.35"/>
<text xml:space="preserve" text-anchor="middle" x="324.12" y="-239.47" font-family="DejaVu Sans" font-size="12.00">0</text>
</g>
<!-- w1&#45;&gt;c1 -->
<g id="edge7" class="edge">
<title>w1&#45;&gt;c1</title>
<path fill="none" stroke="#85929e" d="M272.24,-312.24C280.88,-301 291.67,-286.97 301.17,-274.61"/>
<polygon fill="#85929e" stroke="#85929e" points="303.88,-276.82 307.2,-266.76 298.33,-272.56 303.88,-276.82"/>
<text xml:space="preserve" text-anchor="middle" x="307.7" y="-286.05" font-family="DejaVu Sans" font-size="9.00"> e ≠ l </text>
</g>
<!-- w3 -->
<g id="node4" class="node">
<title>w3</title>
<polygon fill="#d1f2eb" stroke="black" points="277.73,-174.9 234.53,-174.9 234.53,-131.7 277.73,-131.7 277.73,-174.9"/>
<text xml:space="preserve" text-anchor="middle" x="256.12" y="-149.02" font-family="DejaVu Sans" font-size="12.00">l</text>
</g>
<!-- w2&#45;&gt;w3 -->
<!-- c2 -->
<g id="node7" class="node">
<title>c2</title>
<polygon fill="#f9e79f" stroke="black" points="345.73,-174.9 302.52,-174.9 302.52,-131.7 345.73,-131.7 345.73,-174.9"/>
<text xml:space="preserve" text-anchor="middle" x="324.12" y="-149.02" font-family="DejaVu Sans" font-size="12.00">1</text>
</g>
<!-- w2&#45;&gt;c2 -->
<g id="edge8" class="edge">
<title>w2&#45;&gt;c2</title>
<path fill="none" stroke="#1e8449" d="M272.24,-221.79C280.88,-210.55 291.67,-196.52 301.17,-184.16"/>
<polygon fill="#1e8449" stroke="#1e8449" points="303.88,-186.37 307.2,-176.31 298.33,-182.11 303.88,-186.37"/>
<text xml:space="preserve" text-anchor="middle" x="306.2" y="-195.6" font-family="DejaVu Sans" font-size="9.00"> l = l </text>
</g>
<!-- w4 -->
<g id="node5" class="node">
<title>w4</title>
<polygon fill="#ffffff" stroke="black" points="277.73,-84.45 234.53,-84.45 234.53,-41.25 277.73,-41.25 277.73,-84.45"/>
<text xml:space="preserve" text-anchor="middle" x="256.12" y="-58.57" font-family="DejaVu Sans" font-size="12.00">o</text>
</g>
<!-- w3&#45;&gt;w4 -->
<!-- c3 -->
<g id="node8" class="node">
<title>c3</title>
<polygon fill="#f9e79f" stroke="black" points="345.73,-84.45 302.52,-84.45 302.52,-41.25 345.73,-41.25 345.73,-84.45"/>
<text xml:space="preserve" text-anchor="middle" x="324.12" y="-58.57" font-family="DejaVu Sans" font-size="12.00">1</text>
</g>
<!-- w3&#45;&gt;c3 -->
<g id="edge9" class="edge">
<title>w3&#45;&gt;c3</title>
<path fill="none" stroke="#1e8449" d="M272.24,-131.34C280.88,-120.1 291.67,-106.07 301.17,-93.71"/>
<polygon fill="#1e8449" stroke="#1e8449" points="303.88,-95.92 307.2,-85.86 298.33,-91.66 303.88,-95.92"/>
<text xml:space="preserve" text-anchor="middle" x="306.2" y="-105.15" font-family="DejaVu Sans" font-size="9.00"> l = l </text>
</g>
<!-- c1&#45;&gt;c2 -->
<!-- c2&#45;&gt;c3 -->
<!-- note -->
<g id="node9" class="node">
<title>note</title>
<polygon fill="#fcf3cf" stroke="black" points="271.73,-516.2 234.53,-516.2 234.53,-473 277.73,-473 277.73,-510.2 271.73,-516.2"/>
<polyline fill="none" stroke="black" points="271.73,-516.2 271.73,-510.2"/>
<polyline fill="none" stroke="black" points="277.73,-510.2 271.73,-510.2"/>
<text xml:space="preserve" text-anchor="middle" x="256.12" y="-504.23" font-family="DejaVu Sans" font-size="10.00">The universal automaton is query&#45;agnostic.</text>
<text xml:space="preserve" text-anchor="middle" x="256.12" y="-491.48" font-family="DejaVu Sans" font-size="10.00">A dictionary term enters only through χ(c, s_n(w,i)).</text>
<text xml:space="preserve" text-anchor="middle" x="256.12" y="-478.73" font-family="DejaVu Sans" font-size="10.00">Positions i &lt; 1 are padded with &#39;$&#39; (out of bounds).</text>
</g>
<!-- note&#45;&gt;w0 -->
</g>
</svg>
