<svg xmlns="http://www.w3.org/2000/svg" xmlns:xlink="http://www.w3.org/1999/xlink" contentStyleType="text/css" data-diagram-type="DESCRIPTION" height="702px" preserveAspectRatio="none" style="width:957px;height:702px;background:#FFFFFF;" version="1.1" viewBox="0 0 957 702" width="957px" zoomAndPan="magnify"><?plantuml $version$?><defs/><g><g class="title" data-source-line="14"><text fill="#000000" font-family="'DejaVu Sans'" font-size="14" font-weight="700" lengthAdjust="spacing" textLength="516.7969" x="216.6562" y="22.9951">duallity &#8212; query + dictionary as a composable Levenshtein WFST</text></g><!--cluster duallity--><g class="cluster" data-qualified-name="duallity" data-source-line="19" id="ent0003"><path d="M8.5,143.8969 L69.1504,143.8969 A3.75,3.75 0 0 1 71.6504,146.3969 L78.6504,166.1937 L365.5,166.1937 A2.5,2.5 0 0 1 368,168.6937 L368,269.2869 A2.5,2.5 0 0 1 365.5,271.7869 L8.5,271.7869 A2.5,2.5 0 0 1 6,269.2869 L6,146.3969 A2.5,2.5 0 0 1 8.5,143.8969" fill="#D6EAF8" style="stroke:#000000;stroke-width:1.5;"/><line style="stroke:#000000;stroke-width:1.5;" x1="6" x2="78.6504" y1="166.1937" y2="166.1937"/><text fill="#000000" font-family="'DejaVu Sans'" font-size="14" font-weight="700" lengthAdjust="spacing" textLength="59.6504" x="10" y="158.892">duallity</text></g><!--cluster lling-llang--><g class="cluster" data-qualified-name="lling-llang" data-source-line="23" id="ent0005"><path d="M394.5,147.8969 L474.7285,147.8969 A3.75,3.75 0 0 1 477.2285,150.3969 L484.2285,170.1937 L669.5,170.1937 A2.5,2.5 0 0 1 672,172.6937 L672,562.7369 A2.5,2.5 0 0 1 669.5,565.2369 L394.5,565.2369 A2.5,2.5 0 0 1 392,562.7369 L392,150.3969 A2.5,2.5 0 0 1 394.5,147.8969" fill="#FCF3CF" style="stroke:#000000;stroke-width:1.5;"/><line style="stroke:#000000;stroke-width:1.5;" x1="392" x2="484.2285" y1="170.1937" y2="170.1937"/><text fill="#000000" font-family="'DejaVu Sans'" font-size="14" font-weight="700" lengthAdjust="spacing" textLength="79.2285" x="396" y="162.892">lling-llang</text></g><!--entity Lev--><g class="entity" data-qualified-name="duallity.Lev" data-source-line="20" id="ent0004"><rect fill="#D6EAF8" height="76.8906" rx="2.5" ry="2.5" style="stroke:#181818;stroke-width:0.5;" width="330.7344" x="21.63" y="178.8969"/><text fill="#000000" font-family="'DejaVu Sans'" font-size="14" lengthAdjust="spacing" textLength="269.2676" x="31.63" y="201.892">LevenshteinWfst::new(&amp;dict, query, k)</text><line style="stroke:#181818;stroke-width:1;" x1="22.63" x2="351.3644" y1="205.1937" y2="205.1937"/><text fill="#000000" font-family="'DejaVu Sans'" font-size="14" lengthAdjust="spacing" textLength="310.7344" x="31.63" y="222.1889">lazy product  (dict_node x automaton_state)</text><text fill="#000000" font-family="'DejaVu Sans'" font-size="14" lengthAdjust="spacing" textLength="200.2314" x="31.63" y="238.4857">Wfst&lt;char, TropicalWeight&gt;</text></g><!--entity Down--><g class="entity" data-qualified-name="lling-llang.Down" data-source-line="24" id="ent0006"><rect fill="#FCF3CF" height="68.8906" rx="2.5" ry="2.5" style="stroke:#181818;stroke-width:0.5;" width="232.5361" x="415.73" y="182.8969"/><text fill="#000000" font-family="'DejaVu Sans'" font-size="14" lengthAdjust="spacing" textLength="132.8223" x="425.73" y="205.892">Downstream WFST</text><text fill="#000000" font-family="'DejaVu Sans'" font-size="14" lengthAdjust="spacing" textLength="212.5361" x="425.73" y="222.1889">phonetic rewrite  /  n-gram LM</text><text fill="#000000" font-family="'DejaVu Sans'" font-size="14" lengthAdjust="spacing" textLength="200.2314" x="425.73" y="238.4857">Wfst&lt;char, TropicalWeight&gt;</text></g><!--entity Compose--><g class="entity" data-qualified-name="lling-llang.Compose" data-source-line="25" id="ent0007"><rect fill="#FCF3CF" height="76.8906" rx="2.5" ry="2.5" style="stroke:#181818;stroke-width:0.5;" width="248.5049" x="407.75" y="349.7869"/><text fill="#000000" font-family="'DejaVu Sans'" font-size="14" lengthAdjust="spacing" textLength="141.6475" x="417.75" y="372.782">compose(lev, down)</text><line style="stroke:#181818;stroke-width:1;" x1="408.75" x2="655.2549" y1="376.0837" y2="376.0837"/><text fill="#000000" font-family="'DejaVu Sans'" font-size="14" lengthAdjust="spacing" textLength="89.3867" x="417.75" y="393.0789">lazy  T1 o T2</text><text fill="#000000" font-family="'DejaVu Sans'" font-size="14" lengthAdjust="spacing" textLength="228.5049" x="417.75" y="409.3757">(min over y) [ T1(x,y) + T2(y,z) ]</text></g><!--entity Search--><g class="entity" data-qualified-name="lling-llang.Search" data-source-line="26" id="ent0008"><rect fill="#FCF3CF" height="52.5938" rx="2.5" ry="2.5" style="stroke:#181818;stroke-width:0.5;" width="242.0313" x="410.98" y="496.6469"/><text fill="#000000" font-family="'DejaVu Sans'" font-size="14" lengthAdjust="spacing" textLength="147.1094" x="420.98" y="519.642">Shortest-path search</text><text fill="#000000" font-family="'DejaVu Sans'" font-size="14" lengthAdjust="spacing" textLength="222.0313" x="420.98" y="535.9389">accepting_paths()  /  best paths</text></g><!--entity Query--><g class="entity" data-qualified-name="Query" data-source-line="16" id="ent0001"><rect fill="#FADBD8" height="52.5938" rx="2.5" ry="2.5" style="stroke:#181818;stroke-width:0.5;" width="123.25" x="9.37" y="44.2969"/><text fill="#000000" font-family="'DejaVu Sans'" font-size="14" lengthAdjust="spacing" textLength="87.1855" x="19.37" y="67.292">Query string</text><text fill="#000000" font-family="'DejaVu Sans'" font-size="14" lengthAdjust="spacing" textLength="103.25" x="19.37" y="83.5889">\"helo\",  k = 2</text></g><!--entity Dict--><g class="entity" data-qualified-name="Dict" data-source-line="17" id="ent0002"><rect fill="#D5F5E3" height="52.5938" rx="2.5" ry="2.5" style="stroke:#181818;stroke-width:0.5;" width="270.291" x="167.85" y="44.2969"/><text fill="#000000" font-family="'DejaVu Sans'" font-size="14" lengthAdjust="spacing" textLength="71.8047" x="177.85" y="67.292">Dictionary</text><text fill="#000000" font-family="'DejaVu Sans'" font-size="14" lengthAdjust="spacing" textLength="250.291" x="177.85" y="83.5889">(DynamicDawgChar / SCDAWG / &#8230;)</text></g><!--entity Out--><g class="entity" data-qualified-name="Out" data-source-line="29" id="ent0009"><rect fill="#E8DAEF" height="68.8906" rx="2.5" ry="2.5" style="stroke:#181818;stroke-width:0.5;" width="279.0273" x="392.49" y="619.2069"/><text fill="#000000" font-family="'DejaVu Sans'" font-size="14" lengthAdjust="spacing" textLength="135.4336" x="402.49" y="642.202">Ranked corrections</text><text fill="#000000" font-family="'DejaVu Sans'" font-size="14" lengthAdjust="spacing" textLength="202.6514" x="402.49" y="658.4989">labels + total tropical weight</text><text fill="#000000" font-family="'DejaVu Sans'" font-size="14" lengthAdjust="spacing" textLength="259.0273" x="402.49" y="674.7957">(= edit distance + downstream cost)</text></g><g class="entity" data-qualified-name="GMN16" data-source-line="39" id="ent0017"><path d="M687.89,487.6769 L687.89,558.2081 A0,0 0 0 0 687.89,558.2081 L942.1092,558.2081 A0,0 0 0 0 942.1092,558.2081 L942.1092,497.6769 L932.1092,487.6769 L744.96,487.6769 L612.72,427.0769 L736.96,487.6769 L687.89,487.6769 A0,0 0 0 0 687.89,487.6769" fill="#FEFFDD" style="stroke:#181818;stroke-width:0.5;"/><path d="M932.1092,487.6769 L932.1092,497.6769 L942.1092,497.6769 L932.1092,487.6769" fill="#FEFFDD" style="stroke:#181818;stroke-width:0.5;"/><text fill="#000000" font-family="'DejaVu Sans'" font-size="13" lengthAdjust="spacing" textLength="174.7827" x="693.89" y="504.7438">Tropical semiring (min, +):</text><text fill="#000000" font-family="'DejaVu Sans'" font-size="13" lengthAdjust="spacing" textLength="233.2192" x="693.89" y="519.8766">paths combined by min (best wins),</text><text fill="#000000" font-family="'DejaVu Sans'" font-size="13" lengthAdjust="spacing" textLength="205.3022" x="693.89" y="535.0094">edge costs added along a path.</text><text fill="#000000" font-family="'DejaVu Sans'" font-size="13" lengthAdjust="spacing" textLength="204.0771" x="693.89" y="550.1422">Product states expanded lazily.</text></g><!--link Query to Lev--><g class="link" data-entity-1="ent0001" data-entity-2="ent0004" data-link-type="dependency" data-source-line="31" id="lnk10"><path d="M91.47,97.1369 C109.55,119.7069 133.0323,149.0059 153.5823,174.6359" fill="none" id="Query-to-Lev" style="stroke:#34495E;stroke-width:1;"/><polygon fill="#34495E" points="156.71,178.5369,154.2008,169.013,153.5823,174.6359,147.9593,174.0174,156.71,178.5369" style="stroke:#34495E;stroke-width:1;stroke-linejoin:miter;stroke-miterlimit:10;"/></g><!--link Dict to Lev--><g class="link" data-entity-1="ent0002" data-entity-2="ent0004" data-link-type="dependency" data-source-line="32" id="lnk11"><path d="M282.53,97.1369 C264.45,119.7069 240.9677,149.0059 220.4177,174.6359" fill="none" id="Dict-to-Lev" style="stroke:#34495E;stroke-width:1;"/><polygon fill="#34495E" points="217.29,178.5369,226.0407,174.0174,220.4177,174.6359,219.7992,169.013,217.29,178.5369" style="stroke:#34495E;stroke-width:1;stroke-linejoin:miter;stroke-miterlimit:10;"/></g><!--link Lev to Compose--><g class="link" data-entity-1="ent0004" data-entity-2="ent0007" data-link-type="dependency" data-source-line="33" id="lnk12"><path d="M253.29,256.2669 C288.7,276.0169 333.26,300.0969 374,319.7869 C394.95,329.9069 413.1967,338.1516 434.8467,347.4616" fill="none" id="Lev-to-Compose" style="stroke:#34495E;stroke-width:1;"/><polygon fill="#34495E" points="439.44,349.4369,432.7522,342.2068,434.8467,347.4616,429.5919,349.5561,439.44,349.4369" style="stroke:#34495E;stroke-width:1;stroke-linejoin:miter;stroke-miterlimit:10;"/><text fill="#000000" font-family="'DejaVu Sans'" font-size="13" lengthAdjust="spacing" textLength="148.6304" x="375" y="300.8538">T1 (input: query chars,</text><text fill="#000000" font-family="'DejaVu Sans'" font-size="13" lengthAdjust="spacing" textLength="120.1738" x="389.2283" y="315.9866">output: dict chars)</text></g><!--link Down to Compose--><g class="link" data-entity-1="ent0006" data-entity-2="ent0007" data-link-type="dependency" data-source-line="34" id="lnk13"><path d="M532,252.1069 C532,280.2169 532,315.2169 532,344.3969" fill="none" id="Down-to-Compose" style="stroke:#34495E;stroke-width:1;"/><polygon fill="#34495E" points="532,349.3969,536,340.3969,532,344.3969,528,340.3969,532,349.3969" style="stroke:#34495E;stroke-width:1;stroke-linejoin:miter;stroke-miterlimit:10;"/><text fill="#000000" font-family="'DejaVu Sans'" font-size="13" lengthAdjust="spacing" textLength="16.2119" x="533" y="308.3538">T2</text></g><!--link Compose to Search--><g class="link" data-entity-1="ent0007" data-entity-2="ent0008" data-link-type="dependency" data-source-line="35" id="lnk14"><path d="M532,426.9069 C532,449.1269 532,471.6669 532,491.3669" fill="none" id="Compose-to-Search" style="stroke:#34495E;stroke-width:1;"/><polygon fill="#34495E" points="532,496.3669,536,487.3669,532,491.3669,528,487.3669,532,496.3669" style="stroke:#34495E;stroke-width:1;stroke-linejoin:miter;stroke-miterlimit:10;"/></g><!--link Search to Out--><g class="link" data-entity-1="ent0008" data-entity-2="ent0009" data-link-type="dependency" data-source-line="36" id="lnk15"><path d="M532,549.6769 C532,569.6369 532,592.4469 532,614.1369" fill="none" id="Search-to-Out" style="stroke:#34495E;stroke-width:1;"/><polygon fill="#34495E" points="532,619.1369,536,610.1369,532,614.1369,528,610.1369,532,619.1369" style="stroke:#34495E;stroke-width:1;stroke-linejoin:miter;stroke-miterlimit:10;"/></g><?plantuml-src XLNRZjis47tdLmmSe96mqXRTpHQfqGHmBRilwTMBxaDLB2XfBB6cIOMaujKM0V8H_OP-MBwaGqfob4M1wicYvipbd3FqStY3xr3Png5GwTrsTmkbFhRQ2YUqWbQqA8L2s6i3ha6eEYwbS3sKXZkyPCzXhILzarYZgY0gUj0d9LGz1CHBYW2Gef2VoW2yWcVRLVPTzX8YWrKgR1DJrBvxVEpXo5tPK889M8dI4V8Cp6wsDvjhY6g3g3oCdb8hnwbDOmFgtEJuUDJNczMMoXMomn4KvWaJyugtRW8JKjMfb9nc6C7RzVPwlOMeHodrANu2bZKMXWUixbpREO1PuStBRBKXRDkPLcBCc3q8rNB3Zr3myb0RtQbguF3PDZop2DlmIfyyctikBSw-LBZddNHR6ln7VaHOPFWd_ws37LTsCOjR6QDFO_hh5o--kTamveIJCoK_VlWRtdPeUhW0JpRfpkc5M-2Z5pYfD_T969mnWwKZbkZRufU0jyvGhxdA5mrAdIyIW0DnSBNmoOQGKVSvDZlNp5MKzOeVHPdnKxrkk84lORVELdVVqu-F7_w9GoOFc7p0M4iiyfhoJ0Cjpch_nG1cXMOJtEsjMouLdg8l_CZ9G402XpXNQPehoSc9hT5LHwKWyZ7tIbS83y0xfycZMjrRvnsUXsJVbjHj0hT6jwBayWv5tRZNeLqgEtN4ti_wdHbjSVROavOpMYPY5Kb9ptcksaOhTAAae9CH3e680PNMNkitF_nlBpxVLElpIeFI6D6U9a2cKtCcuFOhq71xHG8TINxz3WtqCVnEvz53Ghykw6FK9uyn_17gh8Ti_rrgrsZZqBgqvQu1YzoKJQvuMMBhY99xVsoZE8nMK1o4Wv1t5uBFQTz_Pi9VkJfWHPur_f0iPNtx1KfB_Jdjk0GtSWAdG0hDymgm4ewCJsgg4lqEVEAyrDODdlk9rdhSPSO6AwVfQwyj2tOyltcrXxU9WwLdBwA5xDnoN3Gla4roDTmNox1sms7CWaHF4ronwSL_65XW8ndXYFfZJ6aoHA4T6HJqVi8J-PCLYEoZy3iANiS4BkX-Xe5Ul-e5NQ4Lq1NkHOu2zNJvs3YX8Ap8ivuFkXQgYiAur9I71_Gb1VmyRalO2Wluq7BbuyX0GlQNpFyz-0R_1G00?></g></svg>